<svg xmlns="http://www.w3.org/2000/svg" viewBox="0 0 1200 760">
  <defs>
    <linearGradient id="bg" x1="0" y1="0" x2="1" y2="1"><stop stop-color="#1b1722"/><stop offset=".55" stop-color="#11131a"/><stop offset="1" stop-color="#2b130f"/></linearGradient>
    <radialGradient id="glow" cx=".55" cy=".35" r=".55"><stop stop-color="#ffb85c" stop-opacity=".55"/><stop offset="1" stop-color="#ffb85c" stop-opacity="0"/></radialGradient>
  </defs>
  <rect width="1200" height="760" fill="url(#bg)"/>
  <rect width="1200" height="760" fill="url(#glow)"/>
  <g opacity=".35" stroke="#f4c76b" stroke-width="2">
    <path d="M0 585h1200"/><path d="M0 610h1200"/><path d="M0 635h1200"/>
  </g>
  <g transform="translate(175 170)">
    <rect x="0" y="330" width="860" height="72" rx="20" fill="#2a1d1d"/>
    <rect x="55" y="270" width="120" height="70" rx="12" fill="#6c3c28"/>
    <rect x="218" y="230" width="95" height="112" rx="14" fill="#9b6032"/>
    <rect x="355" y="255" width="135" height="88" rx="15" fill="#6a2431"/>
    <rect x="535" y="215" width="105" height="128" rx="15" fill="#1f6d61"/>
    <rect x="690" y="250" width="115" height="92" rx="15" fill="#a05c2e"/>
    <g fill="#fff2d0" opacity=".85">
      <rect x="75" y="288" width="80" height="12" rx="6"/><rect x="240" y="258" width="50" height="54" rx="8"/>
      <rect x="382" y="282" width="80" height="11" rx="6"/><rect x="558" y="245" width="58" height="62" rx="8"/>
      <rect x="716" y="278" width="64" height="12" rx="6"/>
    </g>
  </g>
  <g transform="translate(770 105)">
    <ellipse cx="115" cy="260" rx="75" ry="14" fill="#07080d" opacity=".55"/>
    <path d="M60 80h110c-7 120-23 176-55 205C82 256 67 200 60 80z" fill="#d7eff1" opacity=".32"/>
    <path d="M78 92h74c-9 72-24 114-37 130-17-24-29-65-37-130z" fill="#ff7a59" opacity=".66"/>
    <path d="M115 282v55" stroke="#f4c76b" stroke-width="7" stroke-linecap="round"/>
    <path d="M74 342h82" stroke="#f4c76b" stroke-width="9" stroke-linecap="round"/>
    <circle cx="150" cy="78" r="15" fill="#f4c76b"/>
  </g>
  <text x="90" y="120" fill="#fff7e6" font-size="48" font-family="Georgia,serif" font-weight="700">Coctelería de autor</text>
  <text x="94" y="166" fill="#f4c76b" font-size="24" font-family="Arial,sans-serif">Jazz, tapas y noches memorables</text>
</svg>
